<svg width="96" height="96" viewBox="0 0 96 96" fill="none" xmlns="http://www.w3.org/2000/svg">
<g id="Condiments">
<path id="Vector" d="M57.4772 23.3594H23.6986V62.0355H57.4772V23.3594Z" fill="#FFAD31"/>
<path id="Vector_2" d="M57.4772 62.0355V67.3074L42.7788 67.3196L40.6063 65.1532L39.1948 66.5586L38.5504 67.203L36.5313 65.2023L34.4753 67.2336L32.3211 65.0979L30.0873 67.3074L27.9331 65.1777L25.8466 67.2398L23.6986 65.1164V62.0355H57.4772Z" fill="#FF6B6E"/>
<path id="Vector_3" d="M39.9387 62.0356C40.5033 59.0958 41.608 56.2789 43.1974 53.732C42.8967 53.5541 42.731 53.3516 42.731 53.1367V47.3433C42.731 46.5148 45.2596 45.8458 48.3773 45.8458C51.4948 45.8458 54.0234 46.5148 54.0234 47.3433V53.1367C54.0234 53.3516 53.8577 53.5541 53.557 53.732C55.1464 56.2789 56.2572 59.0958 56.8218 62.0356H39.9387Z" fill="#FF8D29"/>
<path id="Vector_4" d="M57.4779 66.0492V67.3074L42.7795 67.3196L40.607 65.1532L39.1956 66.5586L39.797 62.8149C39.8398 62.5511 39.8828 62.2933 39.9381 62.0355H56.8212C56.8765 62.2933 56.9195 62.5511 56.9625 62.8149L57.4779 66.0492Z" fill="#DB4A4D"/>
<path id="Vector_5" d="M57.4772 19.849V23.3594H23.6986V19.9656L25.8466 17.8422L27.9331 19.9043L30.0873 17.7685L32.3211 19.9779L34.4753 17.8483L36.5313 19.8736L38.5504 17.8729L40.5757 19.8736L42.7297 17.744L44.9391 19.9288L46.989 17.9036L49.0142 19.9043L51.1192 17.8237L53.2734 19.9534L55.4275 17.8237L57.4772 19.849Z" fill="#FF6B6E"/>
<path id="Vector_6" d="M57.4805 23.3594V61.7849C53.5221 61.3062 52.8164 59.6921 52.8164 59.6921C52.8164 59.6921 47.2685 49.6393 52.8164 37.9723H52.8654C52.4911 37.512 52.3439 36.8921 52.4911 36.2845L52.5157 36.1802H52.6691C52.1659 35.8856 51.816 35.5542 51.6687 35.1982C49.2446 29.7667 51.5829 26.0107 51.5829 26.0107C51.5829 24.7771 53.9578 23.7277 57.2535 23.3594H57.4805V23.3594ZM44.7078 37.5606V37.5667C44.5974 37.9534 44.4992 38.1866 44.4992 38.1866C39.3747 51.351 28.991 46.7972 28.991 46.7972C37.8344 45.5267 38.8285 36.2472 38.8285 36.2472C38.8285 36.2472 40.2462 34.9522 41.2896 34.5901C41.2896 34.5901 42.0381 35.9772 42.026 36.6584L43.1858 34.8847C43.1858 34.8847 44.3212 35.6825 44.7078 37.5606ZM42.0782 33.0946C41.7622 33.0946 41.4939 32.8522 41.4674 32.5318C41.4374 32.1706 41.2119 28.9656 42.5004 27.6489C42.9074 27.2328 43.4306 27.0315 44.0173 27.0675C44.3556 27.0883 44.6132 27.3793 44.5924 27.7176C44.5717 28.0559 44.28 28.3127 43.9424 28.2927C43.71 28.2783 43.5369 28.3447 43.378 28.507C42.7 29.1991 42.5965 31.281 42.6906 32.4306C42.7183 32.7683 42.467 33.0647 42.1293 33.0925C42.1122 33.0939 42.0951 33.0946 42.0782 33.0946Z" fill="#FF8D29"/>
<path id="Vector_7" d="M44.6935 37.6556C44.3069 35.7777 43.1714 34.98 43.1714 34.98L42.0114 36.7535C42.0236 36.0723 41.2749 34.6854 41.2749 34.6854C40.2314 35.0475 38.8136 36.3423 38.8136 36.3423C39.1022 34.6854 39.7834 33.7588 40.526 33.2433C42.0788 32.1632 44.3007 33.0284 44.7855 34.851C45.0618 35.9127 44.8715 36.9989 44.6935 37.6556Z" fill="#FF8D29"/>
<path id="Vector_8" d="M43.9955 37.0329C43.609 35.155 42.4736 34.3573 42.4736 34.3573L41.3139 36.1308C41.326 35.4496 40.5775 34.0627 40.5775 34.0627C39.5342 34.4248 38.1166 35.7196 38.1166 35.7196C38.4051 34.0627 39.0862 33.1361 39.8287 32.6206C41.3813 31.5405 43.6028 32.4057 44.0875 34.2284C44.3638 35.2901 44.1735 36.3762 43.9955 37.0329Z" fill="#89CF6E"/>
<path id="Vector_9" d="M43.997 37.033V37.0391C43.8866 37.4258 43.7884 37.659 43.7884 37.659C38.664 50.8236 28.2804 46.2697 28.2804 46.2697C37.1237 44.9992 38.1178 35.7196 38.1178 35.7196C38.1178 35.7196 39.5354 34.4246 40.5788 34.0625C40.5788 34.0625 41.3274 35.4495 41.3152 36.1308L42.475 34.3571C42.475 34.3571 43.6104 35.1549 43.997 37.033Z" fill="#FF6B6E"/>
<path id="Vector_10" d="M43.997 37.0326V37.0387C43.8866 37.4254 43.7884 37.6586 43.7884 37.6586C38.664 50.8227 28.2804 46.269 28.2804 46.269C29.3052 46.1217 30.2258 45.8639 31.0543 45.5264C34.3928 45.1827 38.572 43.182 41.2907 36.2102C41.2907 36.2102 41.3029 36.1795 41.3274 36.1182C41.3274 36.112 41.3274 36.112 41.3337 36.1059L42.4751 34.3568C42.475 34.3568 43.6104 35.1546 43.997 37.0326Z" fill="#DB4A4D"/>
<path id="Vector_11" d="M41.7079 32.6095C41.3919 32.6095 41.1236 32.3672 41.0971 32.0467C41.0671 31.6856 40.8416 28.4807 42.1301 27.1641C42.537 26.748 43.0602 26.5467 43.647 26.5827C43.9853 26.6035 44.2428 26.8944 44.222 27.2328C44.2013 27.5711 43.9096 27.8279 43.572 27.8079C43.3397 27.7934 43.1666 27.8598 43.0076 28.0221C42.3297 28.7142 42.2262 30.796 42.3202 31.9456C42.348 32.2833 42.0967 32.5796 41.759 32.6074C41.7419 32.6088 41.7248 32.6095 41.7079 32.6095Z" fill="#89CF6E"/>
<path id="Vector_12" d="M26.8498 39.736C26.3414 39.736 25.9292 39.3239 25.9292 38.8155V29.7217C25.9292 29.2133 26.3414 28.8011 26.8498 28.8011C27.3581 28.8011 27.7703 29.2133 27.7703 29.7217V38.8155C27.7703 39.3238 27.3581 39.736 26.8498 39.736Z" fill="#FFE8C4"/>
<path id="Vector_13" d="M57.4778 19.8493V23.3599H53.3679V19.8616L55.4291 17.824L57.4778 19.8493Z" fill="#DB4A4D"/>
<path id="Vector_14" d="M62.8169 77.1519C67.1033 77.1519 70.6288 76.052 71.0528 74.6425L71.1211 74.6518C74.4556 67.1831 69.6463 61.5785 69.6463 61.5785H55.9951V77.1153L62.8169 77.1519Z" fill="#FFAD31"/>
<path id="Vector_15" d="M71.1209 74.6537L71.0535 74.6414C70.6299 76.0529 67.1009 77.1514 62.817 77.1514L60.1105 77.1392C64.0078 77.0041 67.1132 75.9608 67.506 74.6414L67.5735 74.6537C70.9123 67.1848 66.1006 61.5815 66.1006 61.5815H69.648C69.648 61.5815 74.4536 67.1848 71.1209 74.6537Z" fill="#FF8D29"/>
<path id="Vector_16" d="M55.47 60.4093L55.4435 60.5184C55.2332 61.385 55.6322 62.2892 56.4274 62.7088C57.766 63.415 60.1099 63.8832 62.7777 63.8832C65.4036 63.8832 67.737 63.4701 69.0641 62.7419C70.351 62.0358 69.9879 60.7877 69.6952 59.8864L55.47 60.4093Z" fill="#FF6B6E"/>
<path id="Vector_17" d="M55.7702 37.9741C50.2239 49.6412 55.7702 59.6935 55.7702 59.6935C55.7702 59.6935 56.7441 61.9164 62.8169 61.9164C66.4744 61.9164 69.4713 60.9614 69.7396 59.7497L69.7303 59.6935C69.7303 59.6935 75.2766 49.6412 69.7303 37.9741H55.7702Z" fill="#FFAD31"/>
<path id="Vector_18" d="M69.0659 62.7418C67.7343 63.4723 65.4023 63.8836 62.7758 63.8836C62.199 63.8836 61.6404 63.859 61.1005 63.8161C62.972 63.6749 64.5799 63.3004 65.5924 62.7418C66.8259 62.0666 66.5436 60.9002 66.2614 60.0101L69.6919 59.8873C69.9864 60.7897 70.3484 62.0359 69.0659 62.7418Z" fill="#DB4A4D"/>
<path id="Vector_19" d="M55.7702 37.9741C50.2239 49.6412 55.7702 59.6935 55.7702 59.6935C55.7702 59.6935 56.7441 61.9164 62.8169 61.9164C66.4744 61.9164 69.4713 60.9614 69.7396 59.7497L69.7303 59.6935C69.7303 59.6935 75.2766 49.6412 69.7303 37.9741H55.7702Z" fill="#FFAD31"/>
<path id="Vector_20" d="M69.729 59.6901L69.7412 59.7515C69.4712 60.9605 66.4768 61.9179 62.8194 61.9179C62.1568 61.9179 61.5493 61.8933 61.0031 61.8381C63.8381 61.5988 65.9674 60.7641 66.1944 59.7515C66.1944 59.7515 71.7293 49.6375 66.1821 37.9708H69.729C75.2762 49.6375 69.729 59.6901 69.729 59.6901Z" fill="#FF8D29"/>
<path id="Vector_21" d="M55.47 36.1764L55.4435 36.2855C55.2332 37.152 55.6322 38.056 56.4274 38.4755C57.7659 39.1817 60.1098 39.6499 62.7776 39.6499C65.4034 39.6499 67.7154 39.1964 69.0639 38.5087C69.9147 38.0748 70.3015 37.0776 70.0088 36.1764H55.47Z" fill="#FF8D29"/>
<path id="Vector_22" d="M54.6207 35.1958C52.1976 29.7687 54.5391 26.0115 54.5391 26.0115H71.112C71.112 26.0115 73.3921 29.7073 70.9691 35.1344C70.5451 36.5439 67.1046 37.5917 62.818 37.5917C58.5315 37.5917 55.0059 36.4918 54.5819 35.0823L54.6207 35.1958Z" fill="#FFAD31"/>
<path id="Vector_23" d="M62.8173 28.8071C67.3894 28.8071 71.0958 27.5557 71.0958 26.0119C71.0958 24.4681 67.3894 23.2167 62.8173 23.2167C58.2452 23.2167 54.5388 24.4681 54.5388 26.0119C54.5388 27.5557 58.2452 28.8071 62.8173 28.8071Z" fill="#FFE8C4"/>
<path id="Vector_24" d="M55.47 36.1764L55.4435 36.2855C55.2332 37.152 55.6322 38.056 56.4274 38.4755C57.7659 39.1817 60.1098 39.6499 62.7776 39.6499C65.4034 39.6499 67.7154 39.1964 69.0639 38.5087C69.9147 38.0748 70.3015 37.0776 70.0088 36.1764H55.47Z" fill="#FF6B6E"/>
<path id="Vector_25" d="M69.0657 38.5112C67.7154 39.1985 65.4019 39.6526 62.7753 39.6526C62.18 39.6526 61.6031 39.628 61.0508 39.5851C62.941 39.4317 64.5488 39.0389 65.5921 38.5112C66.4452 38.0755 66.8318 37.0754 66.5372 36.1794H70.0108C70.2992 37.0754 69.9125 38.0755 69.0657 38.5112Z" fill="#DB4A4D"/>
<path id="Vector_26" d="M54.6207 35.1958C52.1976 29.7687 54.5391 26.0115 54.5391 26.0115H71.112C71.112 26.0115 73.3921 29.7073 70.9691 35.1344C70.5451 36.5439 67.1046 37.5917 62.818 37.5917C58.5315 37.5917 55.0059 36.4918 54.5819 35.0823L54.6207 35.1958Z" fill="#FFAD31"/>
<path id="Vector_27" d="M56.0229 34.4203C55.6144 34.4203 55.2414 34.1463 55.1331 33.7326C54.8104 32.4989 54.6793 31.2611 54.7437 30.0537C54.7707 29.546 55.2033 29.1586 55.7118 29.1834C56.2195 29.2105 56.609 29.644 56.5818 30.1517C56.5276 31.169 56.6394 32.217 56.914 33.2665C57.0426 33.7584 56.7483 34.2614 56.2565 34.3901C56.1784 34.4106 56.1001 34.4203 56.0229 34.4203ZM56.108 45.8854C55.7234 45.7477 55.4645 45.364 55.5019 44.938C55.6139 43.6677 55.9076 42.4582 56.3751 41.3431C56.5715 40.8742 57.1094 40.6554 57.5798 40.85C58.0486 41.0467 58.2693 41.5862 58.0727 42.0549C57.6788 42.9945 57.4308 44.0188 57.3357 45.0995C57.2911 45.606 56.8445 45.9804 56.3381 45.9358C56.2577 45.9287 56.1806 45.9114 56.108 45.8854Z" fill="#FFE8C4"/>
<path id="Vector_28" d="M70.9688 35.136C70.5453 36.5414 67.1022 37.5909 62.8183 37.5909C62.2108 37.5909 61.6215 37.5663 61.0508 37.5234C64.4755 37.284 67.0593 36.3389 67.4213 35.136C69.8457 29.7047 67.5625 26.0101 67.5625 26.0101H71.1101C71.1101 26.0101 73.393 29.7047 70.9688 35.136Z" fill="#FF8D29"/>
<path id="Vector_29" d="M62.8173 28.8071C67.3894 28.8071 71.0958 27.5557 71.0958 26.0119C71.0958 24.4681 67.3894 23.2167 62.8173 23.2167C58.2452 23.2167 54.5388 24.4681 54.5388 26.0119C54.5388 27.5557 58.2452 28.8071 62.8173 28.8071Z" fill="#E4E5E6"/>
<path id="Vector_30" d="M71.097 26.0102C71.097 27.5569 67.3901 28.809 62.8179 28.809C62.2105 28.809 61.615 28.7844 61.0443 28.7476C64.7634 28.4714 67.5497 27.3482 67.5497 26.0102C67.5497 24.6722 64.7634 23.5551 61.0443 23.279C61.615 23.2421 62.2105 23.2175 62.8179 23.2175C67.3901 23.2175 71.097 24.4696 71.097 26.0102Z" fill="#D4D4D4"/>
<g id="Group">
<path id="Vector_31" d="M48.3774 63.35C48.3629 63.35 48.3483 63.3495 48.3336 63.3485C47.6006 63.2968 46.8998 63.217 46.251 63.1114C45.9164 63.057 45.6894 62.7413 45.7438 62.4064C45.7981 62.0716 46.1134 61.8453 46.4482 61.8988C47.0604 61.9986 47.7238 62.074 48.4199 62.123C48.758 62.1469 49.0129 62.4405 48.989 62.7789C48.9663 63.1026 48.6967 63.35 48.3774 63.35ZM50.3496 63.4181C50.0107 63.4181 49.7359 63.143 49.7359 62.8039C49.7359 62.4647 50.0107 62.1896 50.3496 62.1896C52.6389 62.1896 54.7574 61.9203 56.1615 61.4507C56.4825 61.3431 56.8307 61.5168 56.9382 61.8386C57.0456 62.1602 56.8721 62.5083 56.5505 62.6158C55.026 63.1257 52.7658 63.4181 50.3496 63.4181Z" fill="#333333"/>
<path id="Vector_32" d="M55.4542 54.8331C57.2272 57.6383 58.41 60.7681 58.9317 64.0356L61.3653 79.2759V79.5416C61.3653 81.1556 56.4332 82.4641 50.3491 82.4641C44.265 82.4641 39.3329 81.1556 39.3329 79.5416V79.2759L41.7665 64.0356C42.2882 60.7681 43.471 57.6383 45.244 54.8331H55.4542Z" fill="#E4E5E6"/>
<path id="Vector_33" d="M61.3685 79.2744V79.5444C61.3685 81.1585 56.4343 82.4658 50.3525 82.4658C49.7694 82.4658 49.1986 82.4535 48.634 82.4351C53.9057 82.2141 57.9379 81.0051 57.9379 79.5444V79.2744L55.5014 64.0354C54.9797 60.7702 53.7953 57.6403 52.0217 54.8293H55.4523C57.226 57.6403 58.4104 60.7702 58.9321 64.0354L61.3685 79.2744Z" fill="#D4D4D4"/>
<path id="Vector_34" d="M46.0507 79.8076C46.7927 79.8076 47.3942 79.2128 47.3942 78.4792C47.3942 77.7455 46.7927 77.1508 46.0507 77.1508C45.3087 77.1508 44.7072 77.7455 44.7072 78.4792C44.7072 79.2128 45.3087 79.8076 46.0507 79.8076Z" fill="white"/>
<path id="Vector_35" d="M55.9942 48.5646V54.3615C55.9942 55.1886 53.4669 55.8591 50.3494 55.8591C47.2319 55.8591 44.7046 55.1886 44.7046 54.3615V48.5646H55.9942Z" fill="white"/>
<path id="Vector_36" d="M54.6486 79.8076C55.3908 79.8076 55.9925 79.2128 55.9925 78.4792C55.9925 77.7455 55.3908 77.1508 54.6486 77.1508C53.9063 77.1508 53.3046 77.7455 53.3046 78.4792C53.3046 79.2128 53.9063 79.8076 54.6486 79.8076Z" fill="white"/>
<path id="Vector_37" d="M50.3492 76.6191C51.0912 76.6191 51.6927 76.0244 51.6927 75.2907C51.6927 74.557 51.0912 73.9623 50.3492 73.9623C49.6072 73.9623 49.0057 74.557 49.0057 75.2907C49.0057 76.0244 49.6072 76.6191 50.3492 76.6191Z" fill="white"/>
<path id="Vector_38" d="M44.4388 75.0261C45.1808 75.0261 45.7823 74.4311 45.7823 73.6972C45.7823 72.9633 45.1808 72.3683 44.4388 72.3683C43.6968 72.3683 43.0953 72.9633 43.0953 73.6972C43.0953 74.4311 43.6968 75.0261 44.4388 75.0261Z" fill="white"/>
<path id="Vector_39" d="M55.9945 48.5646V54.358C55.9945 55.1866 53.4717 55.8555 50.3537 55.8555C49.7584 55.8555 49.1813 55.8309 48.6412 55.7819C50.9184 55.5916 52.5633 55.027 52.5633 54.358V48.5646H55.9945V48.5646Z" fill="#E4E5E6"/>
<path id="Vector_40" d="M56.2594 75.0261C57.0017 75.0261 57.6034 74.4311 57.6034 73.6972C57.6034 72.9633 57.0017 72.3683 56.2594 72.3683C55.5171 72.3683 54.9154 72.9633 54.9154 73.6972C54.9154 74.4311 55.5171 75.0261 56.2594 75.0261Z" fill="white"/>
<path id="Vector_41" d="M50.3494 50.0619C53.467 50.0619 55.9942 49.3915 55.9942 48.5645C55.9942 47.7374 53.467 47.067 50.3494 47.067C47.2319 47.067 44.7046 47.7374 44.7046 48.5645C44.7046 49.3915 47.2319 50.0619 50.3494 50.0619Z" fill="white"/>
<path id="Vector_42" d="M55.9945 48.5649C55.9945 49.3937 53.4718 50.0628 50.3538 50.0628C49.8627 50.0628 49.3901 50.0444 48.942 50.0138C51.3788 49.848 53.1772 49.2647 53.1772 48.5649C53.1772 47.8651 51.3788 47.2818 48.942 47.116C49.3901 47.0854 49.8627 47.067 50.3538 47.067C53.4718 47.067 55.9945 47.7361 55.9945 48.5649Z" fill="#E4E5E6"/>
</g>
</g>
</svg>
