<svg width="96" height="96" viewBox="0 0 96 96" fill="none" xmlns="http://www.w3.org/2000/svg">
<g id="Fruits and vegetables">
<path id="Vector" d="M31.7133 46.2154C31.7133 46.2154 31.0809 30.3042 20.2731 18.6592C20.2731 18.6592 26.7153 28.5968 28.7009 46.1169L29.9637 47.2596L31.7133 46.2154Z" fill="#89CF6E"/>
<path id="Vector_2" d="M31.7147 46.2143L29.9656 47.2573L29.3825 46.7325L29.9202 46.4151C29.9202 46.4151 29.525 36.5099 24.0509 26.611C22.1851 21.7329 20.4878 18.9926 20.2935 18.6816C31.0797 30.3296 31.7147 46.2143 31.7147 46.2143Z" fill="#6DBF4D"/>
<path id="Vector_3" d="M34.168 45.3252C32.5701 36.9879 30.8299 14.5125 30.8299 14.5125C26.9 23.352 29.9438 43.0237 31.1303 46.8288L34.168 45.3252Z" fill="#89CF6E"/>
<path id="Vector_4" d="M34.1708 45.3265L31.1325 46.8295C31.0743 46.6481 31.0159 46.4214 30.9511 46.1687C31.9528 45.6736 32.51 44.5848 32.3332 43.4815C31.2484 36.711 30.1607 24.642 29.636 18.4352C29.9276 16.984 30.3227 15.6561 30.828 14.5094C30.828 14.5094 32.5706 36.9891 34.1708 45.3265Z" fill="#6DBF4D"/>
<path id="Vector_5" d="M44.2044 62.4877L37.7196 65.9147L31.2282 69.728C26.9721 68.6786 23.2151 64.9948 22.4896 60.4406C21.6539 55.1802 25.8453 49.3756 28.7021 46.1171C28.7021 46.1171 29.9588 46.5771 31.7145 46.2143C33.1979 45.9099 34.1049 45.0547 34.1049 45.0547C34.2733 45.1519 34.4418 45.2556 34.6167 45.3591C38.3481 47.6136 43.9062 51.7791 44.729 56.9811C45.0399 58.8988 44.8262 60.7775 44.2044 62.4877Z" fill="#FF6B6E"/>
<path id="Vector_6" d="M25.5738 60.1642C25.0443 60.1642 24.611 59.7393 24.6026 59.2079C24.5712 57.2305 25.1081 55.064 26.1987 52.7687C26.4288 52.2839 27.0087 52.0777 27.4933 52.308C27.978 52.5384 28.1843 53.1181 27.9538 53.6029C26.9927 55.6256 26.5189 57.5011 26.5457 59.177C26.5542 59.7136 26.1263 60.1555 25.5896 60.1641C25.5844 60.1641 25.5791 60.1642 25.5738 60.1642Z" fill="#FFD4D5"/>
<path id="Vector_7" d="M44.2043 62.4877L37.5823 66.0763C31.7062 61.6581 33.398 49.4599 33.398 49.4599C33.6313 47.782 34.0524 46.4345 34.6161 45.3591C38.3477 47.6136 43.9062 51.7791 44.729 56.9811C45.0399 58.8987 44.8263 60.7775 44.2043 62.4877Z" fill="#DB4A4D"/>
<path id="Vector_8" d="M54.0201 33.6946C54.0201 33.6946 53.0511 26.8103 48.0449 24.2288C48.0449 24.2288 46.43 33.3504 52.7281 39.3741L54.0201 33.6946Z" fill="#89CF6E"/>
<path id="Vector_9" d="M54.0195 33.6919L52.7302 39.3732C52.4776 39.1335 52.238 38.8873 52.0177 38.6411L52.8469 35.0134C52.8469 35.0134 52.0047 29.0666 47.8715 26.158C47.9168 24.9595 48.0464 24.2274 48.0464 24.2274C53.0478 26.8122 54.0195 33.6919 54.0195 33.6919Z" fill="#6DBF4D"/>
<path id="Vector_10" d="M52.777 41.4629C52.2859 41.4629 51.8647 41.0936 51.8123 40.5947C51.7818 40.3046 51.148 33.4118 58.3597 26.6198C58.7502 26.2519 59.3653 26.2702 59.7334 26.6609C60.1013 27.0516 60.0829 27.6666 59.6921 28.0346C53.2194 34.1306 53.721 40.1424 53.7456 40.3953C53.7971 40.9279 53.4087 41.4041 52.8761 41.4579C52.8429 41.4612 52.8097 41.4629 52.777 41.4629Z" fill="#FFAD31"/>
<path id="Vector_11" d="M41.7259 63.0794C35.8518 58.6605 37.8129 46.7561 37.8129 46.7561C39.6449 33.6841 52.7783 40.493 52.7783 40.493C52.7783 40.493 66.6148 33.8669 68.0568 47.3959C68.1822 48.573 68.2175 49.6789 68.171 50.7162C68.171 50.7162 67.6825 59.1111 62.3641 63.7548C57.0457 68.3984 41.7259 63.0794 41.7259 63.0794Z" fill="#89CF6E"/>
<path id="Vector_12" d="M40.5495 52.3803C40.5444 52.3803 40.5395 52.3803 40.5346 52.3803C39.9981 52.3722 39.5697 51.9306 39.5777 51.394C39.6133 49.0235 39.8893 47.3223 39.9011 47.251C40.0541 46.1587 40.2971 45.1326 40.62 44.2243C40.7998 43.7187 41.3549 43.4544 41.8611 43.6344C42.3666 43.8143 42.6307 44.37 42.4509 44.8756C42.1718 45.6605 41.9601 46.5583 41.8218 47.5439C41.8158 47.5825 41.554 49.2064 41.5206 51.4232C41.5127 51.9548 41.0792 52.3803 40.5495 52.3803Z" fill="#BDEBAB"/>
<path id="Vector_13" d="M68.1751 50.7169C68.1751 50.7169 67.6827 59.1128 62.3639 63.7579C60.2519 65.5977 56.5722 65.8698 52.8923 65.5264C54.7388 65.3062 56.3778 64.7685 57.5375 63.7579C62.8563 59.1128 63.3487 50.7169 63.3487 50.7169C63.3941 49.6803 63.3617 48.5725 63.2321 47.3934C62.6554 41.9581 60.077 39.7748 57.2006 39.1141C61.3857 38.356 67.1516 38.9197 68.0585 47.3934C68.1816 48.5725 68.2205 49.6803 68.1751 50.7169Z" fill="#6DBF4D"/>
<g id="Group">
<path id="Vector_14" d="M63.9827 61.4927C69.8947 57.3712 71.196 60.1258 71.196 60.1258L70.7564 60.5134C76.5235 57.4563 75.1361 61.2554 75.1361 61.2554L75.1245 61.2074C75.1245 61.2074 82.3784 59.6004 84.0415 63.0227C85.7046 66.445 78.4917 66.2386 74.3143 63.9858L75.3393 64.5633C75.503 65.3406 75.6752 67.6833 70.8781 64.9292L71.3041 65.3314C71.3041 65.3314 69.909 68.0407 64.1418 63.7233L63.9827 61.4927Z" fill="#89CF6E"/>
<path id="Vector_15" d="M75.1381 61.2567L75.1251 61.2049C75.1251 61.2049 75.1381 61.2049 75.1576 61.1984C75.1446 61.2373 75.1381 61.2567 75.1381 61.2567ZM74.3154 63.9838L75.339 64.5603C75.5009 65.3377 75.6759 67.6825 70.8756 64.9295L71.3031 65.3312C71.3031 65.3312 69.9102 68.0388 64.1448 63.7247L64.0929 63.051C67.183 63.5886 70.7719 63.7959 74.5876 63.5757C77.8007 63.3879 80.8259 62.9279 83.495 62.2543C83.7151 62.4745 83.8965 62.7336 84.039 63.0251C85.704 66.4453 78.4938 66.238 74.3154 63.9838Z" fill="#6DBF4D"/>
<path id="Vector_16" d="M62.4177 59.923C65.0927 51.8633 68.2636 53.5465 68.2636 53.5465L68.122 54.2224C71.4107 47.2697 72.7799 51.835 72.7799 51.835L72.7351 51.7978C72.7351 51.7978 78.45 45.1659 82.4332 47.2245C86.4165 49.2831 79.4616 54.174 73.9294 54.9923L75.3042 54.8149C76.0069 55.4334 77.8215 57.5238 71.3506 58.3058L72.0364 58.3852C72.0364 58.3852 72.6298 61.9269 64.1409 61.9168L62.4177 59.923Z" fill="#89CF6E"/>
<path id="Vector_17" d="M71.8085 52.0968L71.7631 52.058C71.7631 52.058 71.7696 52.0515 71.789 52.0321C71.802 52.071 71.8085 52.0968 71.8085 52.0968ZM73.9268 54.9928L75.3066 54.8179C76.0063 55.4333 77.82 57.526 71.3485 58.3099L72.0351 58.3876C72.0351 58.3876 72.6312 61.925 64.1383 61.9185L62.4152 59.9231C62.5252 59.5863 68.1507 57.3512 70.865 55.7832C75.1988 53.2825 78.7594 49.8163 81.3637 46.875C81.7265 46.9334 82.0891 47.0435 82.4325 47.2249C86.4165 49.285 79.4592 54.1765 73.9268 54.9928Z" fill="#6DBF4D"/>
<path id="Vector_18" d="M64.1753 61.4941C65.5287 65.2199 62.4215 68.9703 57.8964 70.5771C48.4206 73.9417 32.6987 75.9894 24.3202 77.7025C20.7322 78.4361 19.891 76.008 23.0795 74.2363C32.2967 69.1148 43.3113 62.0438 53.5252 58.4171C58.0338 56.8162 62.8269 57.782 64.1753 61.4941Z" fill="#FFAD31"/>
<path id="Vector_19" d="M57.8938 70.5786C48.4225 73.9407 32.6997 75.9878 24.3233 77.7045C21.6866 78.2422 20.5335 77.0762 21.3692 75.7157C29.8299 74.012 45.2675 71.9714 54.6222 68.6547C59.1505 67.048 62.2537 63.2972 60.8996 59.5723C60.673 58.9504 60.3491 58.4062 59.9474 57.9398C61.9168 58.4322 63.4909 59.6046 64.1777 61.4963C65.5251 65.2212 62.4221 68.9721 57.8938 70.5786Z" fill="#FF8D29"/>
<path id="Vector_20" d="M46.5124 72.1493C46.1885 72.1493 45.8719 71.9874 45.6875 71.6925C45.0369 70.6517 44.5047 69.5103 44.106 68.3C43.9381 67.7902 44.215 67.2409 44.7247 67.0729C45.2342 66.9053 45.7839 67.182 45.9517 67.6917C46.3019 68.7541 46.7674 69.7536 47.3355 70.6624C47.62 71.1175 47.4816 71.717 47.0266 72.0014C46.8664 72.1015 46.6883 72.1493 46.5124 72.1493ZM57.1997 68.9868C56.8758 68.9868 56.5591 68.825 56.3747 68.53C55.724 67.4891 55.1918 66.3476 54.7931 65.1375C54.6251 64.6277 54.9021 64.0784 55.4118 63.9104C55.9214 63.7428 56.471 64.0195 56.6388 64.5292C56.989 65.5915 57.4545 66.5909 58.0227 67.4999C58.3071 67.9549 58.1689 68.5544 57.7139 68.8389C57.5536 68.9391 57.3756 68.9868 57.1997 68.9868ZM50.7396 67.7013C50.3532 67.7013 49.9877 67.4693 49.8363 67.0884C49.3652 65.9037 49.0413 64.6881 48.8735 63.4753C48.7999 62.9437 49.1713 62.453 49.7029 62.3795C50.2311 62.3056 50.7249 62.6771 50.7986 63.2088C50.9451 64.267 51.229 65.3307 51.6422 66.3703C51.8406 66.869 51.597 67.434 51.0983 67.6324C50.9805 67.6792 50.859 67.7013 50.7396 67.7013ZM39.3093 71.8576C38.9229 71.8576 38.5576 71.6256 38.406 71.2447C38.0079 70.244 37.7342 69.2168 37.5923 68.1917C37.5187 67.6601 37.89 67.1695 38.4215 67.0959C38.9529 67.0224 39.4437 67.3935 39.5174 67.9252C39.6379 68.7956 39.8716 69.6708 40.2119 70.5265C40.4102 71.0252 40.1668 71.5902 39.6681 71.7886C39.5503 71.8354 39.4287 71.8576 39.3093 71.8576Z" fill="#FFE8C4"/>
<path id="Vector_21" d="M71.8085 52.0964L71.7631 52.0576C71.7631 52.0576 71.7695 52.0511 71.789 52.0316C71.802 52.0705 71.8085 52.0964 71.8085 52.0964ZM75.1577 61.1983C75.1447 61.2372 75.1382 61.2567 75.1382 61.2567L75.1253 61.2048C75.1253 61.2048 75.1382 61.2048 75.1577 61.1983Z" fill="#6DBF4D"/>
</g>
</g>
</svg>
