<svg width="96" height="96" viewBox="0 0 96 96" fill="none" xmlns="http://www.w3.org/2000/svg">
<g id="Grain and pasta">
<path id="Vector" d="M40.4238 30.9891C39.8361 33.1386 39.3824 35.2335 39.0376 37.2509C39.0376 37.2509 37.7009 50.2142 38.0344 58.5675C38.1183 60.6703 39.4583 62.521 41.4295 63.2582C44.3304 64.3432 49.3605 65.6098 57.0344 65.6098C66.8329 65.6098 74.7763 63.2887 74.7763 60.4255C74.7763 60.4255 78.0636 47.0756 73.4636 30.6277L40.4238 30.9891Z" fill="#E4E5E6"/>
<path id="Vector_2" d="M74.771 60.4272C74.771 63.2868 66.8272 65.6098 57.0317 65.6098C55.9031 65.6098 54.8347 65.5824 53.8213 65.533C62.165 65.1112 68.5091 62.9856 68.5091 60.4272C68.5091 60.4272 71.7907 47.1147 67.2161 30.6907L73.4615 30.625C78.058 47.0765 74.771 60.4272 74.771 60.4272Z" fill="#D4D4D4"/>
<path id="Vector_3" d="M44.3282 21.4337C42.6295 22.1362 41.0902 23.4254 39.9135 25.4728C39.2379 26.6483 38.7788 28.2322 38.7788 28.2322C38.5736 28.7762 38.6346 29.3946 38.9817 29.8629L38.6606 29.0648C38.6606 31.5662 46.7274 33.5941 56.6782 33.5941C66.6291 33.5941 74.6958 31.5663 74.6958 29.0648L74.3701 29.8629C74.7172 29.3946 74.7782 28.7763 74.573 28.2322C74.573 28.2322 74.1139 26.6483 73.4383 25.4728C72.2616 23.4254 70.7223 22.1362 69.0237 21.4337H44.3282Z" fill="#E4E5E6"/>
<path id="Vector_4" d="M38.688 28.9541L38.9838 29.6992C38.8196 29.48 38.7209 29.2225 38.688 28.9541ZM68.4907 29.6992L68.7921 28.9706C68.7537 29.228 68.6551 29.48 68.4907 29.6992Z" fill="#D4D4D4"/>
<path id="Vector_5" d="M74.6986 29.0634C74.6986 31.5669 66.6342 33.5938 56.6797 33.5938C55.677 33.5938 54.6965 33.5719 53.7431 33.5281C62.2952 33.1829 68.8201 31.3149 68.8201 29.0634L68.7928 29.1292C68.8421 28.8333 68.8038 28.5212 68.6941 28.2307C68.6941 28.2307 68.234 26.6476 67.5602 25.4698C66.3822 23.4265 64.8428 22.1336 63.1444 21.4324H69.0284C70.7267 22.1336 72.2662 23.4265 73.4441 25.4698C74.118 26.6476 74.5781 28.2307 74.5781 28.2307C74.6876 28.5212 74.7205 28.8333 74.6713 29.1292L74.6986 29.0634ZM38.688 28.9538L38.9839 29.6989C38.8196 29.4797 38.7209 29.2223 38.688 28.9538Z" fill="#D4D4D4"/>
<path id="Vector_6" d="M68.7911 28.9711C68.7527 29.2284 68.6541 29.4802 68.4897 29.6992L68.7911 28.9711Z" fill="#D4D4D4"/>
<path id="Vector_7" d="M41.6312 40.6521C41.6 40.6521 41.5687 40.6502 41.5372 40.6468C41.0862 40.5953 40.7624 40.1881 40.8137 39.7372C41.0457 37.7002 41.4074 35.6801 41.8889 33.7328C41.9977 33.2922 42.4434 33.0231 42.8837 33.1324C43.3242 33.2412 43.593 33.6867 43.484 34.1273C43.0195 36.0063 42.6705 37.9562 42.4465 39.9232C42.3986 40.3426 42.0433 40.6521 41.6312 40.6521Z" fill="white"/>
<path id="Vector_8" d="M59.7071 41.0842C59.7071 41.0842 58.9907 39.4456 59.7675 36.9109C59.7675 36.9109 62.0201 39.1384 60.7773 42.0571L59.7071 41.0842ZM60.6219 42.4411C60.6219 42.4411 57.5926 43.0556 55.4954 41.289C55.4954 41.289 57.5926 40.4441 59.5345 40.9818L60.6219 42.4411ZM62.2531 43.9773C62.2531 43.9773 62.1409 42.0827 63.6944 40.1625C63.6944 40.1625 65.2047 42.7484 63.4182 45.3599L62.2531 43.9773ZM65.014 47.2955C65.014 47.2955 65.2023 45.0321 67.2157 43.1324C67.2157 43.1324 68.4733 46.3692 66.097 49.0011L65.014 47.2955Z" fill="#D4D4D4"/>
<path id="Vector_9" d="M64.6118 47.5002C64.6118 47.5002 62.4379 47.2141 60.1753 48.8162C60.1753 48.8162 63.0471 50.6883 66.1048 48.8699L64.6118 47.5002ZM67.0982 51.0941C67.0982 51.0941 64.4951 50.8442 61.936 52.6563C61.936 52.6563 65.3285 54.7 68.7869 52.6433L67.0982 51.0941Z" fill="#D4D4D4"/>
<path id="Vector_10" d="M67.4339 50.8198C67.4339 50.8198 67.7817 47.8743 70.1695 45.8465C70.1695 45.8465 71.3967 49.9762 68.555 52.8097L67.4339 50.8198ZM62.0663 44.1405C62.0663 44.1405 60.1399 43.7937 58.0521 45.1296C58.0521 45.1296 60.5338 46.9213 63.3406 45.4254L62.0663 44.1405ZM63.8087 39.4562C63.5062 39.4562 63.2609 39.2109 63.2609 38.9083C63.2609 38.8994 63.2598 37.9897 63.1844 36.8715C63.1641 36.5696 63.3922 36.3084 63.6941 36.2879C63.9989 36.2683 64.2573 36.4959 64.2776 36.7976C64.3556 37.955 64.3565 38.8699 64.3565 38.9083C64.3565 39.2109 64.1113 39.4562 63.8087 39.4562ZM57.0163 45.6783C56.8421 45.6783 56.4096 45.6499 55.4603 45.4623C55.1634 45.4037 54.9704 45.1155 55.0291 44.8187C55.0877 44.522 55.3756 44.3285 55.6727 44.3875C56.6929 44.5892 57.0077 44.5821 57.0228 44.5826C57.3185 44.5757 57.5756 44.8037 57.5916 45.1004C57.6077 45.3969 57.3908 45.6521 57.0946 45.6757C57.0784 45.6771 57.0532 45.6783 57.0163 45.6783ZM67.5058 42.4516C67.4467 42.4516 67.3865 42.442 67.3275 42.4217C67.0418 42.3233 66.8898 42.0123 66.9874 41.7264C66.9945 41.7051 67.2223 41.0072 67.2223 39.9837C67.2223 39.6811 67.4676 39.4358 67.7701 39.4358C68.0726 39.4358 68.3179 39.6811 68.3179 39.9837C68.3179 41.2132 68.0358 42.047 68.0238 42.0819C67.9457 42.309 67.7332 42.4516 67.5058 42.4516ZM58.6569 49.4668C58.376 49.4668 57.8084 49.4286 57.1601 49.1722C56.8787 49.0609 56.7409 48.7426 56.8521 48.4613C56.9633 48.1798 57.2815 48.0421 57.563 48.1533C58.2024 48.4062 58.7385 48.3689 58.7439 48.3689C59.0471 48.3428 59.3105 48.5671 59.336 48.8684C59.3616 49.1699 59.138 49.435 58.8365 49.4605C58.816 49.4623 58.7535 49.4668 58.6569 49.4668Z" fill="#D4D4D4"/>
<path id="Vector_11" d="M70.5405 56.0926C70.3619 56.0926 70.187 56.0057 70.0819 55.8452C66.4067 50.2422 62.2685 44.8306 57.7823 39.7605C57.5818 39.5339 57.6031 39.1877 57.8296 38.9872C58.0562 38.7867 58.4025 38.8081 58.603 39.0345C63.1239 44.1438 67.2942 49.5976 70.9981 55.2444C71.164 55.4973 71.0934 55.8369 70.8404 56.0028C70.7478 56.0636 70.6435 56.0926 70.5405 56.0926ZM60.6782 53.2446H58.8084C58.5059 53.2446 58.2606 52.9993 58.2606 52.6968C58.2606 52.3942 58.5059 52.1489 58.8084 52.1489H60.6782C60.9807 52.1489 61.226 52.3942 61.226 52.6968C61.226 52.9993 60.9807 53.2446 60.6782 53.2446ZM70.571 45.4229C70.5137 45.4229 70.4556 45.4138 70.3982 45.3949C70.1113 45.2996 69.9559 44.9897 70.0506 44.7027C70.0531 44.6953 70.2964 43.9496 70.2964 43.1837C70.2964 42.8812 70.5417 42.6359 70.8443 42.6359C71.1468 42.6359 71.3921 42.8812 71.3921 43.1837C71.3921 44.1321 71.1027 45.0115 71.0903 45.0484C71.0139 45.278 70.8002 45.4229 70.571 45.4229Z" fill="#D4D4D4"/>
<path id="Vector_12" d="M59.0508 41.0842C59.0508 41.0842 58.3345 39.4456 59.1112 36.9109C59.1112 36.9109 61.3638 39.1384 60.121 42.0571L59.0508 41.0842ZM59.9657 42.4411C59.9657 42.4411 56.9363 43.0556 54.8391 41.289C54.8391 41.289 56.9363 40.4441 58.8782 40.9818L59.9657 42.4411ZM61.5969 43.9773C61.5969 43.9773 61.4847 42.0827 63.0382 40.1625C63.0382 40.1625 64.5485 42.7484 62.762 45.3599L61.5969 43.9773ZM64.3577 47.2955C64.3577 47.2955 64.5461 45.0321 66.5594 43.1324C66.5594 43.1324 67.817 46.3692 65.4407 49.0011L64.3577 47.2955Z" fill="#FFAD31"/>
<path id="Vector_13" d="M63.9555 47.5002C63.9555 47.5002 61.7816 47.2141 59.519 48.8162C59.519 48.8162 62.3908 50.6883 65.4485 48.8699L63.9555 47.5002ZM66.442 51.0941C66.442 51.0941 63.8389 50.8442 61.2798 52.6563C61.2798 52.6563 64.6722 54.7 68.1307 52.6433L66.442 51.0941Z" fill="#FFAD31"/>
<path id="Vector_14" d="M66.778 50.8198C66.778 50.8198 67.1258 47.8743 69.5137 45.8465C69.5137 45.8465 70.7409 49.9762 67.8992 52.8097L66.778 50.8198ZM61.4102 44.1405C61.4102 44.1405 59.4838 43.7937 57.3959 45.1296C57.3959 45.1296 59.8778 46.9213 62.6846 45.4254L61.4102 44.1405ZM63.1527 39.4562C62.8502 39.4562 62.6049 39.2109 62.6049 38.9083C62.6049 38.8994 62.6038 37.9897 62.5284 36.8715C62.5081 36.5696 62.7362 36.3084 63.0381 36.2879C63.3429 36.2683 63.6013 36.4959 63.6217 36.7976C63.6996 37.955 63.7006 38.8699 63.7006 38.9083C63.7006 39.2109 63.4553 39.4562 63.1527 39.4562ZM56.36 45.6783C56.1859 45.6783 55.7534 45.6499 54.804 45.4623C54.5071 45.4037 54.3141 45.1155 54.3728 44.8187C54.4314 44.522 54.7194 44.3285 55.0164 44.3875C56.0367 44.5892 56.3515 44.5821 56.3666 44.5826C56.6624 44.5757 56.9194 44.8037 56.9355 45.1004C56.9515 45.3969 56.7346 45.6521 56.4385 45.6757C56.4222 45.6771 56.397 45.6783 56.36 45.6783ZM66.8499 42.4516C66.7908 42.4516 66.7306 42.442 66.6717 42.4217C66.386 42.3233 66.2339 42.0123 66.3315 41.7264C66.3386 41.7051 66.5664 41.0072 66.5664 39.9837C66.5664 39.6811 66.8117 39.4358 67.1142 39.4358C67.4167 39.4358 67.6621 39.6811 67.6621 39.9837C67.6621 41.2132 67.38 42.047 67.3679 42.0819C67.2899 42.309 67.0773 42.4516 66.8499 42.4516ZM58.0007 49.4668C57.7199 49.4668 57.1522 49.4286 56.504 49.1722C56.2226 49.0609 56.0846 48.7426 56.1959 48.4613C56.3071 48.1798 56.6253 48.0421 56.9068 48.1533C57.5463 48.4062 58.0823 48.3689 58.0878 48.3689C58.391 48.3428 58.6544 48.5671 58.6799 48.8684C58.7055 49.1699 58.4818 49.435 58.1804 49.4605C58.1599 49.4623 58.0973 49.4668 58.0007 49.4668Z" fill="#FFAD31"/>
<path id="Vector_15" d="M69.8831 56.0926C69.7045 56.0926 69.5296 56.0057 69.4244 55.8452C65.7494 50.2422 61.6114 44.8306 57.1253 39.7605C56.9248 39.5339 56.9461 39.1877 57.1726 38.9872C57.3992 38.7867 57.7455 38.8081 57.946 39.0345C62.4667 44.1438 66.6369 49.5976 70.3406 55.2444C70.5066 55.4973 70.436 55.8369 70.1829 56.0028C70.0904 56.0636 69.986 56.0926 69.8831 56.0926ZM60.0211 53.2446H58.1514C57.8489 53.2446 57.6036 52.9993 57.6036 52.6968C57.6036 52.3942 57.8489 52.1489 58.1514 52.1489H60.0211C60.3236 52.1489 60.5689 52.3942 60.5689 52.6968C60.5689 52.9993 60.3236 53.2446 60.0211 53.2446ZM69.9135 45.4229C69.8563 45.4229 69.7981 45.4138 69.7407 45.3949C69.4539 45.2996 69.2984 44.9897 69.3931 44.7027C69.3957 44.6953 69.6389 43.9496 69.6389 43.1837C69.6389 42.8812 69.8842 42.6359 70.1868 42.6359C70.4893 42.6359 70.7346 42.8812 70.7346 43.1837C70.7346 44.1321 70.4452 45.0115 70.4329 45.0484C70.3564 45.278 70.1428 45.4229 69.9135 45.4229Z" fill="#FFAD31"/>
<path id="Vector_16" d="M70.7704 23.0489C70.7704 23.8871 69.6199 24.6487 67.6971 25.2459C65.1386 26.051 61.2107 26.5661 56.8006 26.5661C52.248 26.5661 48.2051 26.0183 45.6521 25.1636C43.8773 24.5829 42.8308 23.8487 42.8308 23.0489C42.8308 21.1096 49.087 19.5374 56.8006 19.5374C64.5196 19.5373 70.7704 21.1095 70.7704 23.0489Z" fill="#E4E5E6"/>
<path id="Vector_17" d="M70.7704 23.0488C70.7704 23.1146 70.7649 23.1804 70.7484 23.2461C68.2065 22.3805 64.1252 21.8218 59.5178 21.8218C52.0674 21.8218 45.9754 23.29 45.57 25.1361C43.8444 24.561 42.8308 23.8378 42.8308 23.0488C42.8308 21.1094 49.087 19.5372 56.8006 19.5372C64.5196 19.5372 70.7704 21.1094 70.7704 23.0488Z" fill="#D4D4D4"/>
<path id="Vector_18" d="M67.6961 25.2454C65.1376 26.0505 61.2097 26.5656 56.7996 26.5656C52.2471 26.5656 48.2041 26.0178 45.6511 25.1631C45.7608 25.0591 45.8319 25.0042 45.8319 25.0042C48.3795 23.673 52.2361 22.8184 56.5476 22.8184C61.0014 22.8184 64.8802 23.8866 67.5043 25.1357C67.5754 25.1686 67.6358 25.207 67.6961 25.2454Z" fill="#FFAD31"/>
<path id="Vector_19" d="M67.6956 25.2452C65.1371 26.0505 61.2092 26.5656 56.7991 26.5656C55.0845 26.5656 53.4355 26.4888 51.918 26.3409C54.3759 26.2893 56.6479 26.0754 58.572 25.7428C59.4998 25.5825 59.6005 24.2905 58.7057 23.9975C57.3234 23.5449 55.6915 23.0757 54.3997 22.8896C55.1008 22.8403 55.8185 22.8184 56.5471 22.8184C61.001 22.8184 64.8797 23.8866 67.5038 25.1357C67.575 25.1686 67.6353 25.207 67.6956 25.2452Z" fill="#FF8D29"/>
<path id="Vector_20" d="M22.9951 73.0326C16.4509 57.3186 22.9951 42.0668 22.9951 42.0668H50.4701C50.4701 42.0668 57.0143 57.3186 50.4701 73.0326H22.9951Z" fill="#FF6B6E"/>
<path id="Vector_21" d="M22.9681 52.3666C22.9291 52.3666 22.8896 52.3638 22.8499 52.358C22.4007 52.2933 22.089 51.8766 22.1538 51.4275C22.446 49.3989 22.8674 47.3904 23.4064 45.4576C23.5283 45.0205 23.9807 44.7645 24.4186 44.8867C24.8558 45.0086 25.1114 45.4619 24.9894 45.899C24.4694 47.7641 24.0626 49.703 23.7804 51.6618C23.7214 52.0713 23.37 52.3666 22.9681 52.3666Z" fill="#FFE8C4"/>
<path id="Vector_22" d="M50.471 73.033H45.9026C52.4486 57.3211 45.9026 42.0693 45.9026 42.0693H50.471C50.471 42.0693 57.0116 57.3211 50.471 73.033Z" fill="#DB4A4D"/>
<path id="Vector_23" d="M50.5595 38.6913H22.9813V42.0669H50.5595V38.6913Z" fill="#FFAD31"/>
<path id="Vector_24" d="M50.5647 38.6893H45.9026V42.0694H50.5647V38.6893Z" fill="#FF8D29"/>
<path id="Vector_25" d="M50.5595 73.0326H22.9813V76.4621H50.5595V73.0326Z" fill="#FFAD31"/>
<path id="Vector_26" d="M50.5647 73.033H45.9026V76.4624H50.5647V73.033Z" fill="#FF8D29"/>
<path id="Vector_27" d="M37.1243 58.3802C36.5963 55.9993 34.2077 54.487 31.7997 55.0091C29.3918 55.5312 27.8624 57.8931 28.3904 60.274L30.6888 59.7756C30.4387 58.6478 31.1631 57.5291 32.3037 57.2817C33.4444 57.0344 34.5758 57.7507 34.8259 58.8786L37.1243 58.3802Z" fill="#DB4A4D"/>
<path id="Vector_28" d="M29.7293 60.9037C30.3679 60.7859 30.8113 60.2881 30.7197 59.7917C30.6281 59.2954 30.0362 58.9885 29.3975 59.1063C28.7589 59.2241 28.3155 59.7219 28.4071 60.2183C28.4987 60.7146 29.0907 61.0215 29.7293 60.9037Z" fill="#DB4A4D"/>
<path id="Vector_29" d="M36.1634 59.5171C36.802 59.3992 37.2454 58.9012 37.1538 58.4046C37.0622 57.908 36.4702 57.601 35.8316 57.7189C35.193 57.8367 34.7496 58.3348 34.8412 58.8314C34.9328 59.3279 35.5247 59.6349 36.1634 59.5171Z" fill="#DB4A4D"/>
<path id="Vector_30" d="M35.0015 64.7577C36.2814 66.8335 39.0339 67.4784 41.1373 66.1953C43.2407 64.9122 43.9107 62.1795 42.6309 60.1036L40.6231 61.3284C41.2294 62.3117 40.9121 63.6061 39.9157 64.2139C38.9192 64.8217 37.6155 64.5163 37.0092 63.5329L35.0015 64.7577Z" fill="#DB4A4D"/>
<path id="Vector_31" d="M42.0626 61.5353C42.6273 61.2145 42.8829 60.5985 42.6334 60.1595C42.384 59.7204 41.724 59.6246 41.1592 59.9455C40.5945 60.2663 40.3389 60.8823 40.5884 61.3213C40.8378 61.7603 41.4978 61.8561 42.0626 61.5353Z" fill="#DB4A4D"/>
<path id="Vector_32" d="M36.4378 64.9562C37.0026 64.6352 37.2582 64.019 37.0087 63.5799C36.7593 63.1407 36.0992 63.0449 35.5345 63.3658C34.9698 63.6867 34.7142 64.3029 34.9636 64.7421C35.2131 65.1812 35.8731 65.2771 36.4378 64.9562Z" fill="#DB4A4D"/>
<path id="Vector_33" d="M30.325 71.0378C32.4429 69.8282 33.1802 67.0985 31.9684 64.9527C30.7565 62.807 28.0475 62.0454 25.9296 63.2549L27.0863 65.3031C28.0896 64.7301 29.3727 65.0908 29.9467 66.1073C30.5208 67.1237 30.1716 68.4167 29.1683 68.9897L30.325 71.0378Z" fill="#DB4A4D"/>
<path id="Vector_34" d="M27.0807 65.3429C27.5278 65.1084 27.6458 64.4518 27.3441 63.8765C27.0425 63.3012 26.4355 63.025 25.9884 63.2596C25.5413 63.4942 25.4233 64.1507 25.725 64.726C26.0266 65.3013 26.6336 65.5775 27.0807 65.3429Z" fill="#DB4A4D"/>
<path id="Vector_35" d="M30.3075 71.0772C30.7547 70.8427 30.8727 70.1862 30.571 69.611C30.2693 69.0358 29.6622 68.7596 29.215 68.9941C28.7678 69.2287 28.6498 69.8851 28.9515 70.4604C29.2532 71.0356 29.8603 71.3118 30.3075 71.0772Z" fill="#DB4A4D"/>
<path id="Vector_36" d="M45.6401 70.9331C48.0701 71.1406 50.2271 69.3131 50.4483 66.8592C50.6696 64.4053 48.8727 62.24 46.4428 62.0325L46.2315 64.3747C47.3826 64.4731 48.2338 65.4986 48.1289 66.6611C48.0241 67.8235 47.0025 68.6892 45.8514 68.5908L45.6401 70.9331Z" fill="#DB4A4D"/>
<path id="Vector_37" d="M47.2589 63.3467C47.3373 62.7016 46.9947 62.1292 46.4935 62.0682C45.9923 62.0072 45.5225 62.4806 45.444 63.1257C45.3656 63.7708 45.7083 64.3432 46.2094 64.4042C46.7106 64.4652 47.1805 63.9918 47.2589 63.3467Z" fill="#DB4A4D"/>
<path id="Vector_38" d="M46.6576 69.9015C46.736 69.2569 46.3933 68.685 45.8922 68.624C45.391 68.563 44.9212 69.0361 44.8427 69.6807C44.7643 70.3252 45.107 70.8972 45.6081 70.9582C46.1093 71.0192 46.5791 70.5461 46.6576 69.9015Z" fill="#DB4A4D"/>
<g id="Group">
<path id="Vector_39" d="M36.027 58.3802C35.4989 55.9993 33.1101 54.487 30.7019 55.0091C28.2937 55.5312 26.7641 57.8931 27.2922 60.274L29.5908 59.7756C29.3406 58.6478 30.0651 57.5291 31.2059 57.2817C32.3467 57.0344 33.4782 57.7507 33.7284 58.8786L36.027 58.3802Z" fill="#FFAD31"/>
<path id="Vector_40" d="M28.6334 60.9046C29.2721 60.7867 29.7156 60.2884 29.624 59.7916C29.5324 59.2949 28.9403 58.9877 28.3016 59.1056C27.6628 59.2235 27.2193 59.7218 27.3109 60.2186C27.4025 60.7154 27.9946 61.0225 28.6334 60.9046Z" fill="white"/>
<path id="Vector_41" d="M35.0675 59.5182C35.7062 59.4003 36.1497 58.9023 36.0581 58.4057C35.9665 57.9091 35.3744 57.6021 34.7356 57.72C34.0969 57.8378 33.6534 58.3359 33.745 58.8324C33.8366 59.329 34.4287 59.636 35.0675 59.5182Z" fill="white"/>
</g>
<g id="Group_2">
<path id="Vector_42" d="M33.9072 64.7577C35.1872 66.8335 37.9398 67.4784 40.0433 66.1953C42.1468 64.9122 42.8168 62.1795 41.5368 60.1036L39.529 61.3284C40.1354 62.3117 39.818 63.6061 38.8216 64.2139C37.8251 64.8217 36.5213 64.5163 35.915 63.5329L33.9072 64.7577Z" fill="#FFAD31"/>
<path id="Vector_43" d="M40.9662 61.5344C41.531 61.2136 41.7865 60.5978 41.5371 60.1588C41.2876 59.7199 40.6276 59.6241 40.0628 59.9448C39.4981 60.2656 39.2425 60.8815 39.492 61.3204C39.7414 61.7594 40.4015 61.8552 40.9662 61.5344Z" fill="white"/>
<path id="Vector_44" d="M35.3439 64.9553C35.9086 64.6345 36.1642 64.0185 35.9147 63.5795C35.6653 63.1405 35.0052 63.0447 34.4405 63.3655C33.8758 63.6863 33.6202 64.3023 33.8696 64.7413C34.1191 65.1803 34.7791 65.2761 35.3439 64.9553Z" fill="white"/>
</g>
<g id="Group_3">
<path id="Vector_45" d="M29.2307 71.0377C31.3485 69.8283 32.0856 67.0989 30.8739 64.9534C29.6622 62.808 26.9534 62.0465 24.8356 63.2558L25.9922 65.3037C26.9954 64.7308 28.2784 65.0915 28.8524 66.1078C29.4265 67.1241 29.0773 68.4169 28.0741 68.9898L29.2307 71.0377Z" fill="#FFAD31"/>
<path id="Vector_46" d="M25.9841 65.3417C26.4313 65.1072 26.5493 64.4507 26.2476 63.8754C25.946 63.3002 25.3389 63.024 24.8917 63.2585C24.4444 63.4931 24.3265 64.1496 24.6281 64.7248C24.9298 65.3001 25.5369 65.5763 25.9841 65.3417Z" fill="white"/>
<path id="Vector_47" d="M29.2145 71.077C29.6617 70.8425 29.7796 70.186 29.478 69.6108C29.1763 69.0355 28.5692 68.7593 28.122 68.9939C27.6748 69.2284 27.5568 69.8849 27.8585 70.4601C28.1602 71.0354 28.7673 71.3115 29.2145 71.077Z" fill="white"/>
</g>
<g id="Group_4">
<path id="Vector_48" d="M44.5447 70.9338C46.9746 71.1414 49.1316 69.3136 49.3529 66.8594C49.5742 64.4053 47.7773 62.2398 45.3473 62.0322L45.1361 64.3748C46.2872 64.4731 47.1383 65.4988 47.0335 66.6613C46.9287 67.8239 45.907 68.6896 44.7559 68.5913L44.5447 70.9338Z" fill="#FFAD31"/>
<path id="Vector_49" d="M46.1651 63.3467C46.2436 62.7019 45.9009 62.1297 45.3997 62.0687C44.8986 62.0077 44.4287 62.481 44.3503 63.1258C44.2718 63.7706 44.6145 64.3428 45.1157 64.4038C45.6169 64.4648 46.0867 63.9915 46.1651 63.3467Z" fill="white"/>
<path id="Vector_50" d="M45.5639 69.9012C45.6424 69.2561 45.2997 68.6837 44.7985 68.6227C44.2973 68.5616 43.8274 69.0351 43.749 69.6802C43.6705 70.3252 44.0132 70.8976 44.5144 70.9586C45.0156 71.0197 45.4855 70.5462 45.5639 69.9012Z" fill="white"/>
</g>
</g>
</svg>
